<?xml version="1.0" standalone="no"?>
<!DOCTYPE svg PUBLIC "-//W3C//DTD SVG 20010904//EN"
 "http://www.w3.org/TR/2001/REC-SVG-20010904/DTD/svg10.dtd">
<svg version="1.0" xmlns="http://www.w3.org/2000/svg"
 width="132.000000pt" height="132.000000pt" viewBox="0 0 132.000000 132.000000"
 preserveAspectRatio="xMidYMid meet">
<metadata>
Created by potrace 1.11, written by Peter Selinger 2001-2013
</metadata>
<g transform="translate(0.000000,132.000000) scale(0.100000,-0.100000)"
fill="#000000" stroke="none">
<path d="M515 1306 c-124 -32 -209 -79 -303 -169 -138 -133 -204 -289 -204
-481 1 -285 179 -531 452 -626 89 -31 266 -39 364 -16 218 51 404 221 475 433
31 91 31 335 0 425 -72 213 -257 382 -472 433 -75 18 -243 18 -312 1z m299
-91 c196 -51 360 -215 411 -411 19 -75 19 -213 0 -288 -51 -196 -215 -360
-411 -411 -75 -19 -213 -19 -288 0 -72 19 -177 73 -231 120 l-40 34 52 1 52 0
3 148 3 147 66 -149 66 -150 59 3 c33 1 60 4 62 5 1 2 -36 91 -83 199 -47 108
-85 200 -85 206 0 5 36 95 81 198 44 103 83 194 86 201 4 10 -9 12 -57 10
l-63 -3 -66 -146 -66 -147 -3 149 -3 149 -42 0 -42 0 30 25 c46 37 156 93 216
109 72 20 220 20 293 1z m-574 -557 l0 -383 -38 54 c-63 88 -94 180 -100 296
-5 113 7 184 44 265 21 48 84 150 92 150 1 0 2 -172 2 -382z"/>
<path d="M680 677 l0 -418 58 3 57 3 3 173 2 172 70 0 70 0 0 -175 0 -175 60
0 60 0 0 410 0 410 -60 0 -60 0 0 -175 0 -175 -70 0 -70 0 0 179 0 179 -60 4
-60 3 0 -418z"/>
</g>
</svg>
